# xmcd
#
# Track frame offsets: 
#        150
#        43597
#        77396
#        111831
#        140026
#        183786
#        240078
#
# Disc length: 3701 seconds
#
# Revision: 2
# Processed by: cddbd v1.5.2PL0 Copyright (c) Steve Scherf et al.
# Submitted via: ExactAudioCopyFreeDBPlugin 1.0
#
DISCID=4b0e7307
DTITLE=Various Artist - Philadelphia International Classics:  The Tom
DTITLE=Moulton Remixes
DYEAR=2012
DGENRE=Soul
TTITLE0=The O'Jays - Back Stabbers (Tom Moulton remix)
TTITLE1=The Intruders - (Win, Place or Show) She's a Winner (Tom Moult
TTITLE1=on remix)
TTITLE2=Johnny Williams - Slow Motion (Tom Moulton remix)
TTITLE3=The O'Jays - Love Train (Tom Moulton remix)
TTITLE4=The Intruders - I'll Always Love My Mama (Tom Moulton remix)
TTITLE5=Harold Melvin and The Blue Notes - The Love I Lost (Tom Moulton 
TTITLE5=remix)
TTITLE6=The Three Degrees - Dirty Old Man (Tom Moulton remix)
EXTD=YEAR: 2012
EXTT0=
EXTT1=
EXTT2=
EXTT3=
EXTT4=
EXTT5=
EXTT6=
PLAYORDER=
